<?xml version="1.0" encoding="utf-8"?>
<!-- Generator: Adobe Illustrator 26.0.2, SVG Export Plug-In . SVG Version: 6.00 Build 0)  -->
<svg version="1.1" id="Layer_1" xmlns="http://www.w3.org/2000/svg" xmlns:xlink="http://www.w3.org/1999/xlink" x="0px" y="0px"
	 viewBox="0 0 439.1 106.6" style="enable-background:new 0 0 439.1 106.6;" xml:space="preserve">
<style type="text/css">
	.st0{fill:#897053;}
</style>
<g>
	<path class="st0" d="M434.5,15h0.6l1,1.6h0.7l-1-1.7c0.5-0.1,0.8-0.6,0.8-1.1c0-0.7-0.5-1.2-1.2-1.2h-1.5v4h0.6V15z M434.5,13.1
		h0.9c0.3,0,0.6,0.3,0.6,0.7s-0.3,0.7-0.6,0.7h-0.9V13.1z"/>
	<path class="st0" d="M435.2,18.6c2.2,0,3.9-1.8,3.9-3.9s-1.8-3.9-3.9-3.9c-2.2,0-3.9,1.8-3.9,3.9S433,18.6,435.2,18.6 M435.2,11.2
		c1.9,0,3.4,1.5,3.4,3.4s-1.5,3.4-3.4,3.4s-3.4-1.5-3.4-3.4C431.8,12.7,433.3,11.2,435.2,11.2"/>
	<path class="st0" d="M124.9,57.4c0-27.2-13.6-49.2-30.3-49.2s-30.3,22-30.3,49.2s13.6,49.2,30.3,49.2
		C111.3,106.6,124.9,84.6,124.9,57.4 M101.6,103.1c-8.2,1.3-17.9-18.2-21.8-43.4c-3.9-25.2-0.4-46.7,7.7-47.9
		c8.2-1.3,17.9,18.2,21.8,43.4C113.3,80.4,109.8,101.8,101.6,103.1"/>
	<path class="st0" d="M408.2,8.2c-16.7,0-30.3,22-30.3,49.2s13.6,49.2,30.3,49.2c16.7,0,30.3-22,30.3-49.2S424.9,8.2,408.2,8.2
		 M415.2,103.1c-8.2,1.3-17.9-18.2-21.8-43.4S393,13,401.1,11.8c8.2-1.3,17.9,18.2,21.8,43.4C426.8,80.4,423.3,101.8,415.2,103.1"/>
	<path class="st0" d="M59.1,92.3c0.1-0.2,0-0.4-0.1-0.6l-1-0.8c-0.2-0.2-0.5-0.2-0.6,0c-1.5,1.4-8.4,7-18.4-0.4
		C25,80.2,21.4,58.1,21.4,58.1c-4.6-26.2-0.6-42.8,8.8-45.2c3.7-0.9,7.5,2,7.5,2c2.4,2.1,4.7,4.6,6.6,7.2c2.8,3.8,5.1,7.9,7.1,11.8
		l1.9,3.8c0.1,0.2,0.3,0.3,0.6,0.2l1.8-0.7c0.2-0.1,0.3-0.2,0.3-0.4l-1.1-24.4c0-0.6-0.2-1.7-1-1.9C50.6,9.8,41,8.4,41,8.4
		c-11-1-20.2,2.6-27,11.5c0,0-12.2,15.4-10.9,35.8C4.9,83.9,19.2,107,39,106.8C51.4,106.7,58,94.4,59.1,92.3"/>
	<path class="st0" d="M332.8,7.5c0.1,0.3,0.5,0.4,0.7,0.3c1.7-0.8,3.2-0.8,5.7,0L344,9c4.3,1,6.5-1.7,7.2-4.7
		c0.1-0.2-0.1-0.5-0.3-0.6l-1-0.5c-0.2-0.1-0.5-0.1-0.6,0.1c-1.7,1.4-3.3,1.8-6,1c-1.8-0.6-3.7-1.1-5.5-1.6c0,0-3.6-0.9-5.7,3
		c-0.1,0.2-0.1,0.4,0,0.5L332.8,7.5z"/>
	<path class="st0" d="M240.1,37.8l0.9-0.5c0.4-0.2,0.6-0.6,0.6-1c-0.5-8.1-0.8-16.3-1.3-24.5c-0.1-1.5-1.3-2.6-2.8-2.6h-24.1h-24.1
		c-1.5,0-2.7,1.1-2.8,2.6c-0.5,8.2-0.8,16.5-1.3,24.7c0,0.4,0.2,0.8,0.6,1l1,0.5c0.5,0.3,1.1,0.1,1.4-0.5l11.5-23.7
		c0.1-0.1,0.2-0.2,0.2-0.3c1.6-2.7,5.3-0.7,5.7,1.8c0.2,1.3,0.3,2.6,0.3,3.9c0,20.8,0.1,25.7,0,46.5c0,5.1-0.5,26.1-0.9,31.2
		c-0.3,2.8-1.1,4.5-3.4,5.9c-0.5,0.3-0.6,0.9-0.4,1.4l0.6,1.1c0.2,0.4,0.6,0.6,1,0.6h10.7h10.7c0.4,0,0.8-0.2,1-0.6l0.6-1.1
		c0.2-0.5,0.1-1.1-0.4-1.4c-2.3-1.5-3.1-3.1-3.4-5.9c-0.5-5.1-0.9-26.1-0.9-31.2c-0.1-20.8,0-25.7,0-46.5c0-1.3,0.1-2.6,0.3-3.9
		c0.3-2.5,4.1-4.5,5.7-1.8c0.1,0.1,0.2,0.2,0.2,0.3l11.5,23.5C238.9,37.9,239.6,38.1,240.1,37.8"/>
	<path class="st0" d="M269.3,61.6c0-2.3,0.3-2.5,2.7-2.5c5.4,0.1,10.5,1.1,14.5,5.2c2.1,2.2,3.3,4.4,4.4,7.2
		c0.1,0.3,0.3,0.5,0.5,0.7l1,0.5c0.5,0.2,0.8-0.4,0.8-0.8V57.6l0,0V43.3c0-0.4-0.3-1-0.8-0.8l-1,0.5c-0.2,0.2-0.4,0.4-0.5,0.7
		c-1,2.8-2.2,5-4.4,7.2c-4,4.1-9,5.1-14.5,5.2c-2.3,0-2.7-0.2-2.7-2.5c0-1.4,0-2.7,0-4.1c0-7.5,0-15.7,0.2-23.3
		c0,0-0.1-12.6,7.7-14.1c10.4-1.9,14.3,9,14.3,9c3.2,4.6,5.1,11.1,7,16.4c0.2,0.4,0.7,0.6,1.1,0.4l1.3-0.7c0.3-0.1,0.5-0.4,0.4-0.8
		c-0.6-8.3-1.1-16.6-1.7-24.9c-0.1-1.3-1.2-2.4-2.5-2.4h-44c-0.3,0-0.6,0.2-0.7,0.4l-1,1.9c-0.1,0.2-0.1,0.5,0,0.8
		c1.3,2.1,1.8,4.5,2.1,7.1c0.3,3.2,0.6,6.4,0.6,9.6c0.1,16,0.1,32.3,0.1,48.3c-0.1,4.1-0.3,10.7-0.4,14.8c-0.2,3.8-0.5,7.7-2.6,10.7
		c-0.2,0.2-0.2,0.6-0.1,0.8l0.9,1.7c0.1,0.3,0.4,0.4,0.7,0.4h44.5c1.3,0,2.3-0.9,2.5-2.2c1-7.4,2-14.9,2.9-22.3
		c0-0.3-0.1-0.6-0.4-0.8l-1.4-0.7c-0.4-0.2-0.9,0-1.1,0.4c-1.6,3.4-3.2,8.1-5,11.3c-2.4,4.4-5.8,8.4-10.7,10.3
		c-7.1,2.8-13.9,1.3-14.2-7.7L269.3,61.6z"/>
	<path class="st0" d="M172.7,69.4c-6.2-9.9-12.7-19.6-19.1-29.5c-3-4.6-5.7-9.5-6.8-15c-0.7-3.2-0.8-6.4,0.7-9.5
		c2.1-4.1,6.3-5,9.8-2c0,0,7.6,5.6,13.7,24.3c0.1,0.4,0.7,0.6,1.1,0.4l1.3-0.7c0.3-0.1,0.4-0.4,0.4-0.8l-1-24c0-0.7-0.5-1.8-1.6-2.1
		c-6.5-1.4-12.4-3.1-19.5-2.1C140.9,10,133.4,18.2,133,29c-0.3,6.5,2,12.2,5.4,17.5c5.8,9,11.7,17.9,17.5,26.8
		c2.3,3.6,4.5,7.2,6.4,11c1.8,3.6,2.8,7.5,2.1,11.7c-1.2,6.7-7.7,9.5-13.1,5.3c-2.3-1.8-4.3-4.2-6.1-6.6c-4.3-5.7-6.9-13.5-8.8-18.8
		c-0.1-0.4-0.5-0.6-0.9-0.5c-0.3,0-0.6,0.1-0.9,0.1c-0.4,0-0.7,0.4-0.7,0.8l0.9,23.3c0.1,2.3,0.9,3.4,3,4.2c9.4,3.5,19,3.8,28.4,0.5
		c10.9-3.8,15.3-13,11.7-24C176.8,76.5,174.9,72.8,172.7,69.4"/>
	<path class="st0" d="M370.5,9.8c-0.1-0.3-0.4-0.4-0.7-0.4h-10.9c-0.3,0-0.6,0.2-0.7,0.4l-0.8,1.7c-0.2,0.3-0.1,0.7,0.2,1
		c1.8,1.5,3.8,3.7,4.2,6.1c0,0,0.3,3.8,0.3,8.6v39.9c0,0.8-1.1,1.1-1.5,0.4l-33.8-56.8c-0.4-0.8-1.2-1.4-2.1-1.4h-10.9
		c-0.4,0-0.7,0.2-0.9,0.5l-0.7,1.3c-0.2,0.4-0.1,0.9,0.2,1.2c1.7,1.5,2.5,2.2,2.8,4.9c0.8,7.1,1,16.4,1,16.4l0.2,14.2l0.3,40.1
		c-0.1,2.5-0.1,6.6-0.2,8.6c-0.3,3.2-2.4,4.2-4.5,6.1c-0.3,0.3-0.3,0.7-0.2,1l0.9,1.7c0.1,0.3,0.4,0.4,0.7,0.4h10.9
		c0.3,0,0.6-0.2,0.7-0.4l0.8-1.7c0.2-0.3,0.1-0.7-0.2-1c-1.8-1.5-3.8-3.7-4.2-6.1c0,0-0.3-3.8-0.3-8.6l-0.5-53.2
		c0-0.9,1.2-1.3,1.7-0.5l43,72.3c0.1,0.2,0.3,0.3,0.5,0.3h0.7c0.3,0,0.5-0.2,0.5-0.5l-0.6-79.1c0.1-2.5,0.1-6.6,0.2-8.6
		c0.3-3.2,2.4-4.2,4.5-6.1c0.3-0.3,0.3-0.7,0.2-1L370.5,9.8z"/>
</g>
</svg>
